<?xml version="1.0" encoding="utf-8"?>
<!-- Generator: Adobe Illustrator 17.0.0, SVG Export Plug-In . SVG Version: 6.00 Build 0)  -->
<!DOCTYPE svg PUBLIC "-//W3C//DTD SVG 1.1//EN" "http://www.w3.org/Graphics/SVG/1.1/DTD/svg11.dtd">
<svg version="1.1" id="Layer_1" xmlns="http://www.w3.org/2000/svg" xmlns:xlink="http://www.w3.org/1999/xlink" x="0px" y="0px"
	 width="24px" height="24px" viewBox="0 0 24 24" enable-background="new 0 0 24 24" xml:space="preserve">
<path fill-rule="evenodd" clip-rule="evenodd" fill="#A2D9F7" d="M23.503,0.496H12.001H0.497V12v11.504h11.504h11.503V12V0.496
	L23.503,0.496z M13.447,9.465h1.473v2.265h-1.473v5.786H10.36V11.73H9.212V9.465h1.147V9.103c0-0.328,0.036-0.688,0.106-1.081
	c0.07-0.393,0.201-0.716,0.398-0.964c0.194-0.248,0.465-0.449,0.817-0.605c0.349-0.152,0.864-0.23,1.538-0.23
	c0.54,0,1.323,0.063,2.352,0.189l-0.336,1.857c-0.37-0.059-0.666-0.091-0.895-0.091c-0.279,0-0.477,0.047-0.599,0.14
	c-0.121,0.093-0.207,0.24-0.256,0.444C13.46,8.87,13.447,9.105,13.447,9.465z"/>
</svg>
