<?xml version="1.0" encoding="utf-8"?>
<!-- Generator: Adobe Illustrator 17.0.0, SVG Export Plug-In . SVG Version: 6.00 Build 0)  -->
<!DOCTYPE svg PUBLIC "-//W3C//DTD SVG 1.1//EN" "http://www.w3.org/Graphics/SVG/1.1/DTD/svg11.dtd">
<svg version="1.1" id="Layer_1" xmlns="http://www.w3.org/2000/svg" xmlns:xlink="http://www.w3.org/1999/xlink" x="0px" y="0px"
	 width="24px" height="24px" viewBox="0 0 24 24" enable-background="new 0 0 24 24" xml:space="preserve">
<path fill-rule="evenodd" clip-rule="evenodd" fill="#A2D9F7" d="M23.504,0.496H11.999H0.496V12v11.504h11.503h11.505V12V0.496
	L23.504,0.496z M19.201,18.482h-2.5v-4.828c0-1.023-0.055-1.682-0.162-1.981c-0.109-0.301-0.283-0.533-0.526-0.7
	c-0.243-0.167-0.535-0.249-0.876-0.249c-0.438,0-0.831,0.119-1.178,0.356c-0.349,0.237-0.586,0.554-0.714,0.943
	c-0.132,0.392-0.195,1.117-0.195,2.175v4.284h-2.501V9.008h2.319v1.391c0.831-1.062,1.874-1.592,3.137-1.592
	c0.554,0,1.062,0.101,1.522,0.299c0.461,0.201,0.809,0.453,1.043,0.76c0.237,0.31,0.402,0.661,0.493,1.053
	c0.095,0.392,0.14,0.952,0.14,1.682V18.482L19.201,18.482z M7.269,5.246c0.78,0,1.412,0.632,1.412,1.413
	c0,0.78-0.632,1.413-1.412,1.413c-0.781,0-1.413-0.632-1.413-1.413C5.855,5.878,6.488,5.246,7.269,5.246L7.269,5.246z M6.051,18.482
	V9.008h2.501v9.474H6.051z"/>
</svg>
