<?xml version="1.0" encoding="utf-8"?>
<!-- Generator: Adobe Illustrator 17.0.0, SVG Export Plug-In . SVG Version: 6.00 Build 0)  -->
<!DOCTYPE svg PUBLIC "-//W3C//DTD SVG 1.1//EN" "http://www.w3.org/Graphics/SVG/1.1/DTD/svg11.dtd">
<svg version="1.1" id="Layer_1" xmlns="http://www.w3.org/2000/svg" xmlns:xlink="http://www.w3.org/1999/xlink" x="0px" y="0px"
	 width="24px" height="24px" viewBox="0 0 24 24" enable-background="new 0 0 24 24" xml:space="preserve">
<path fill-rule="evenodd" clip-rule="evenodd" fill="#A2D9F7" d="M11.661,0.156H0.156v11.713v11.287h11.505h11.495V11.869V0.156
	H11.661z M17.038,15.216l-1.58,0.022c0,0-0.34,0.067-0.787-0.24c-0.592-0.406-1.149-1.46-1.582-1.323
	c-0.441,0.14-0.428,1.088-0.428,1.088s0.004,0.173-0.096,0.281c-0.109,0.118-0.324,0.112-0.324,0.112h-0.707
	c0,0-1.561,0.123-2.934-1.307c-1.498-1.561-2.822-4.641-2.822-4.641S5.702,9.012,5.786,8.914C5.878,8.803,6.132,8.8,6.132,8.8
	l1.691-0.009c0,0,0.16,0.028,0.274,0.111C8.19,8.971,8.243,9.101,8.243,9.101s0.271,0.691,0.635,1.317
	c0.705,1.22,1.035,1.487,1.274,1.356c0.349-0.19,0.246-1.724,0.246-1.724s0.006-0.557-0.176-0.805
	C10.079,9.051,9.813,8.996,9.696,8.98C9.601,8.967,9.757,8.746,9.96,8.647c0.303-0.149,0.84-0.157,1.477-0.151
	c0.494,0.005,0.637,0.036,0.83,0.083c0.582,0.141,0.385,0.684,0.385,1.988c0,0.417-0.076,1.004,0.226,1.199
	c0.127,0.083,0.445,0.013,1.236-1.332c0.375-0.637,0.658-1.387,0.658-1.387s0.061-0.134,0.156-0.191
	c0.098-0.059,0.231-0.041,0.231-0.041l1.779-0.011c0,0,0.533-0.064,0.621,0.178c0.09,0.253-0.201,0.844-0.928,1.813
	c-1.193,1.59-1.326,1.442-0.336,2.361c0.947,0.879,1.143,1.306,1.176,1.359C17.862,15.164,17.038,15.216,17.038,15.216z"/>
</svg>
