<?xml version="1.0" encoding="utf-8"?>
<!-- Generator: Adobe Illustrator 17.0.0, SVG Export Plug-In . SVG Version: 6.00 Build 0)  -->
<!DOCTYPE svg PUBLIC "-//W3C//DTD SVG 1.1//EN" "http://www.w3.org/Graphics/SVG/1.1/DTD/svg11.dtd">
<svg version="1.1" id="Layer_1" xmlns="http://www.w3.org/2000/svg" xmlns:xlink="http://www.w3.org/1999/xlink" x="0px" y="0px"
	 width="20px" height="20px" viewBox="0 0 24 24" enable-background="new 0 0 24 24" xml:space="preserve">
<g>
	<path fill-rule="evenodd" clip-rule="evenodd" fill="#448BCA" d="M12.004,2.829c4.97,0,9.013,4.036,9.013,9.016
		c0,4.983-4.043,9.019-9.013,9.019c-4.985,0-9.02-4.036-9.02-9.019C2.983,6.866,7.019,2.829,12.004,2.829z"/>
	<path fill-rule="evenodd" clip-rule="evenodd" fill="#FFFFFF" d="M15.441,9.533c0.095-0.083,0.146-0.139,0.408-0.676
		c0.343-0.767,0.781-0.139,1.102-0.61c0.255-0.379,1.204-0.461,1.613-0.017c0.386,0.437,0.788,0.85,1.094,0.536
		c0.832-0.841,0.934,1.902,0.934,2.11c0,0.254,0.205,2.791-1.262,5.599c-0.358,0.667-0.818,0.353-0.759-0.528
		c0.036-0.651,0.014-1.3-0.007-1.522c-0.131-1.286-0.424-1.386-0.672-1.705c-0.402-0.536-0.635-0.068-0.789,0.049
		c-0.255,0.205-0.89,0.37-1.386-0.057c-0.912-0.784-0.854-1.483-0.854-1.919C14.864,10.061,15.054,9.878,15.441,9.533L15.441,9.533z
		 M5.355,6.731C5.8,7.473,6.902,6.774,5.961,6.272c-0.554-0.29-0.073-0.431,0.372-0.858C6.406,5.34,8.056,3.966,8.77,4.04
		C9.245,4.08,9.033,4.434,9.252,4.485c0.401,0.082,0.211,0.261,0.153,0.467c-0.022,0.06,0,0.339,0.175,0.513
		c0.256,0.271,0.219,0.476,0.014,0.558c-0.189,0.075-0.547-0.331-0.759-0.41c-0.649-0.239-0.7,0.197-0.628,0.28
		C8.602,6.329,8.18,6.355,7.909,6.526C7.194,6.97,6.88,7.524,6.472,8.042C5.99,8.658,5.559,9.237,4.873,9.237
		c-0.073,0-0.649-0.289-0.839,0.262c-0.066,0.182-0.212,1.046,0.168,0.963c0.386-0.082,0.759-0.179,0.722,0.314
		c-0.036,0.494,0.431,0.24,0.394,0.676c-0.007,0.105-0.102,0.616-0.409,0.082c-0.117-0.208-0.467,0.097-0.621-0.296
		c-0.058-0.174-0.284-0.139-0.474-0.075c-0.431,0.163-0.438-0.273-0.438-0.495c0.037-1.491,0.81-3.021,1.416-3.698
		C4.961,6.791,5.246,6.56,5.355,6.731L5.355,6.731z M17.674,5.597c-0.175-0.174-0.927-0.659-1.102-0.65
		c-0.438,0.022-0.087,0.532,0.044,0.733c0.088,0.131,0.263,0.576-0.109,0.838c-0.16,0.117-1.095,0.528-0.547,1.246
		c0.103,0.131,0.431,0.436,0.708,0.354c0.328-0.109,0.62-0.628,0.657-0.676c0.161-0.257,0.496-1.038,1.066-0.363
		C19.345,8.239,19.097,7.014,17.674,5.597L17.674,5.597z M6.231,12.216c-0.037,0.875-0.38,0.536-0.38,1.277
		c0,0.362-0.183,0.758,0.898,2.027c0.328,0.371,0.372,0.593,0.408,1.366c0.008,0.405-0.197,1.32,0.124,1.927
		c0.569,1.072,1.737,0.29,2.11-0.179c0.189-0.249,0.554-0.38,0.729-0.716c0.241-0.462,0.489-0.884,0.854-1.146
		c0.219-0.148,0.518-0.38,0.62-0.758c0.139-0.536,0.19-0.832,0.314-1.054c0.335-0.642,0.007-1.044-0.942-1.185
		c-0.722-0.106-0.678-0.229-0.824-0.569C9.88,12.638,8.705,12.267,7.72,11.84C6.588,11.344,6.246,12.002,6.231,12.216z"/>
</g>
</svg>
